<!--?xml version="1.0" standalone="no"?-->
              <svg id="sw-js-blob-svg" viewBox="0 0 100 100" xmlns="http://www.w3.org/2000/svg" version="1.1">
                    <defs> 
                        <linearGradient id="sw-gradient" x1="0" x2="1" y1="1" y2="0">
                            <stop id="stop1" stop-color="rgba(248, 117, 55, 1)" offset="0%"></stop>
                            <stop id="stop2" stop-color="rgba(251, 168, 31, 1)" offset="100%"></stop>
                        </linearGradient>
                    </defs>
                <path fill="url(#sw-gradient)" d="M17.1,-19.8C24.3,-14.2,34,-11,37.7,-4.5C41.3,1.9,39,11.5,33.1,16.7C27.2,21.8,17.8,22.6,10.3,23C2.8,23.3,-2.9,23.4,-10.2,22.9C-17.5,22.4,-26.4,21.4,-31.9,16.3C-37.5,11.1,-39.7,1.9,-38.2,-6.7C-36.6,-15.3,-31.4,-23.2,-24.4,-28.9C-17.4,-34.6,-8.7,-38,-1.9,-35.7C4.9,-33.4,9.8,-25.5,17.1,-19.8Z" width="100%" height="100%" transform="translate(50 50)" stroke-width="0" style="transition: all 0.3s ease 0s;" stroke="url(#sw-gradient)"></path>
              </svg>