<!--?xml version="1.0" standalone="no"?-->
              <svg id="sw-js-blob-svg" viewBox="0 0 100 100" xmlns="http://www.w3.org/2000/svg" version="1.1">
                    <defs> 
                        <linearGradient id="sw-gradient" x1="0" x2="1" y1="1" y2="0">
                            <stop id="stop1" stop-color="rgba(248, 117, 55, 1)" offset="0%"></stop>
                            <stop id="stop2" stop-color="rgba(251, 168, 31, 1)" offset="100%"></stop>
                        </linearGradient>
                    </defs>
                <path fill="url(#sw-gradient)" d="M28.1,-32.2C36.2,-26.7,42.3,-17.6,43.6,-8C44.9,1.5,41.3,11.6,34.7,17.3C28.2,22.9,18.7,24.1,10.3,26.3C1.9,28.5,-5.4,31.8,-13.8,31.5C-22.2,31.3,-31.6,27.5,-34.9,20.7C-38.3,13.9,-35.5,4.1,-33.1,-5.3C-30.8,-14.6,-29,-23.5,-23.5,-29.4C-18.1,-35.3,-9.1,-38.3,0.5,-38.8C10,-39.4,20,-37.6,28.1,-32.2Z" width="100%" height="100%" transform="translate(50 50)" stroke-width="0" style="transition: all 0.3s ease 0s;" stroke="url(#sw-gradient)"></path>
              </svg>